<?xml version="1.0" encoding="UTF-8" standalone="no"?>
<svg
   xmlns:dc="http://purl.org/dc/elements/1.1/"
   xmlns:cc="http://creativecommons.org/ns#"
   xmlns:rdf="http://www.w3.org/1999/02/22-rdf-syntax-ns#"
   xmlns:svg="http://www.w3.org/2000/svg"
   xmlns="http://www.w3.org/2000/svg"
   xmlns:sodipodi="http://sodipodi.sourceforge.net/DTD/sodipodi-0.dtd"
   xmlns:inkscape="http://www.inkscape.org/namespaces/inkscape"
   width="210mm"
   height="297mm"
   viewBox="0 0 210 297"
   version="1.1"
   id="svg8"
   inkscape:version="1.0.1 (c497b03c, 2020-09-10)"
   sodipodi:docname="compass_n_straightedge.svg">
  <defs
     id="defs2" />
  <sodipodi:namedview
     id="base"
     pagecolor="#ffffff"
     bordercolor="#666666"
     borderopacity="1.0"
     inkscape:pageopacity="0.0"
     inkscape:pageshadow="2"
     inkscape:zoom="1.8419743"
     inkscape:cx="517.379"
     inkscape:cy="430.25588"
     inkscape:document-units="mm"
     inkscape:current-layer="layer1"
     inkscape:document-rotation="0"
     showgrid="false"
     inkscape:snap-global="false"
     inkscape:window-width="1252"
     inkscape:window-height="702"
     inkscape:window-x="0"
     inkscape:window-y="25"
     inkscape:window-maximized="0" />
  <metadata
     id="metadata5">
    <rdf:RDF>
      <cc:Work
         rdf:about="">
        <dc:format>image/svg+xml</dc:format>
        <dc:type
           rdf:resource="http://purl.org/dc/dcmitype/StillImage" />
        <dc:title></dc:title>
      </cc:Work>
    </rdf:RDF>
  </metadata>
  <g
     inkscape:label="Layer 1"
     inkscape:groupmode="layer"
     id="layer1">
    <path
       style="fill:none;stroke:#000000;stroke-width:0.264583px;stroke-linecap:butt;stroke-linejoin:miter;stroke-opacity:1"
       d="M 25.702381,129.26786 180.67262,59.720238 172.35714,83.910714 16.630952,153.45833 Z"
       id="path10" />
    <path
       style="fill:none;stroke:#000000;stroke-width:0.264583px;stroke-linecap:butt;stroke-linejoin:miter;stroke-opacity:1"
       d="m 110.76222,146.37482 -30.631269,91.75018 3.023809,2.26785 -1.511904,8.31548 31.750004,-97.51786 z"
       id="path12"
       sodipodi:nodetypes="cccccc" />
    <path
       style="fill:none;stroke:#000000;stroke-width:0.264583px;stroke-linecap:butt;stroke-linejoin:miter;stroke-opacity:1"
       d="m 113.39286,151.19047 26.45834,85.42262 12.09523,-3.02381 -0.82827,-13.75178 -11.96153,0.45576 -23.45399,-73.60632 z"
       id="path14"
       sodipodi:nodetypes="ccccccc" />
    <path
       style="fill:#ffffff;stroke:#ffffff;stroke-width:0.104;stroke-dasharray:0, 1.144"
       id="path18"
       sodipodi:type="arc"
       sodipodi:cx="141.17061"
       sodipodi:cy="163.8445"
       sodipodi:rx="11.507854"
       sodipodi:ry="12.305429"
       sodipodi:start="0.20653226"
       sodipodi:end="4.8720332"
       sodipodi:arc-type="slice"
       d="m 152.4339,166.36794 a 11.507854,12.305429 0 0 1 -13.44685,9.55844 11.507854,12.305429 0 0 1 -9.14798,-14.22767 11.507854,12.305429 0 0 1 13.16091,-10.00316 l -1.82937,12.14895 z" />
    <path
       style="fill:none;stroke:#000000;stroke-width:0.204;stroke-miterlimit:4;stroke-dasharray:none;stroke-dashoffset:2.04"
       id="path20"
       sodipodi:type="arc"
       sodipodi:cx="113.6557"
       sodipodi:cy="145.1799"
       sodipodi:rx="15.153907"
       sodipodi:ry="13.786637"
       sodipodi:start="2.024611"
       sodipodi:end="1.1643687"
       sodipodi:arc-type="arc"
       d="m 107.01227,157.57107 a 15.153907,13.786637 0 0 1 -8.080611,-15.6516 15.153907,13.786637 0 0 1 15.083061,-10.52234 15.153907,13.786637 0 0 1 14.51826,11.16054 15.153907,13.786637 0 0 1 -8.88648,15.28579"
       sodipodi:open="true" />
    <path
       style="fill:none;stroke:#000000;stroke-width:0.18748;stroke-miterlimit:4;stroke-dasharray:none;stroke-dashoffset:2.04"
       id="path20-9"
       sodipodi:type="arc"
       sodipodi:cx="113.70255"
       sodipodi:cy="145.19879"
       sodipodi:rx="13.951268"
       sodipodi:ry="12.647948"
       sodipodi:start="2.024611"
       sodipodi:end="1.167036"
       sodipodi:arc-type="arc"
       d="m 107.58635,156.56653 a 13.951268,12.647948 0 0 1 -7.43711,-14.36707 13.951268,12.647948 0 0 1 13.90244,-9.64466 13.951268,12.647948 0 0 1 13.35274,10.26318 13.951268,12.647948 0 0 1 -8.22071,14.01174"
       sodipodi:open="true" />
  </g>
</svg>
