<?xml version="1.0" encoding="UTF-8" standalone="no"?>
<!-- Created with Inkscape (http://www.inkscape.org/) -->

<svg
   width="210mm"
   height="297mm"
   viewBox="0 0 210 297"
   version="1.1"
   id="svg5"
   inkscape:version="1.2.2 (732a01da63, 2022-12-09, custom)"
   sodipodi:docname="html.svg"
   inkscape:export-filename="../a6c75a08/html.pdf"
   inkscape:export-xdpi="96"
   inkscape:export-ydpi="96"
   xmlns:inkscape="http://www.inkscape.org/namespaces/inkscape"
   xmlns:sodipodi="http://sodipodi.sourceforge.net/DTD/sodipodi-0.dtd"
   xmlns="http://www.w3.org/2000/svg"
   xmlns:svg="http://www.w3.org/2000/svg">
  <sodipodi:namedview
     id="namedview7"
     pagecolor="#ffffff"
     bordercolor="#666666"
     borderopacity="1.0"
     inkscape:showpageshadow="2"
     inkscape:pageopacity="0.0"
     inkscape:pagecheckerboard="0"
     inkscape:deskcolor="#d1d1d1"
     inkscape:document-units="mm"
     showgrid="false"
     showguides="false"
     inkscape:zoom="1.0708779"
     inkscape:cx="304.42313"
     inkscape:cy="572.89444"
     inkscape:window-width="1452"
     inkscape:window-height="752"
     inkscape:window-x="273"
     inkscape:window-y="219"
     inkscape:window-maximized="0"
     inkscape:current-layer="layer1" />
  <defs
     id="defs2" />
  <g
     inkscape:label="Layer 1"
     inkscape:groupmode="layer"
     id="layer1">
    <rect
       style="fill:#cccccc;stroke-width:0.264583"
       id="rect166"
       width="57.382008"
       height="48.293316"
       x="60.863506"
       y="123.09425"
       rx="5"
       ry="5" />
    <path
       id="text113"
       style="font-style:normal;font-weight:normal;font-size:10.5833px;line-height:1.25;font-family:sans-serif;fill:#800000;fill-opacity:1;stroke:none;stroke-width:0.264583"
       d="M 73.810482 129.17144 L 73.810482 136.88674 L 74.854346 136.88674 L 74.854346 133.21254 L 78.647396 133.21254 L 78.647396 136.88674 L 79.69126 136.88674 L 79.69126 129.17144 L 78.647396 129.17144 L 78.647396 132.33404 L 74.854346 132.33404 L 74.854346 129.17144 L 73.810482 129.17144 z M 80.69895 129.17144 L 80.69895 130.04994 L 83.437801 130.04994 L 83.437801 136.88674 L 84.486833 136.88674 L 84.486833 130.04994 L 87.225684 130.04994 L 87.225684 129.17144 L 80.69895 129.17144 z M 88.233374 129.17144 L 88.233374 136.88674 L 89.246232 136.88674 L 89.246232 130.11195 L 91.235775 135.40362 L 92.284806 135.40362 L 94.274349 130.11195 L 94.274349 136.88674 L 95.292375 136.88674 L 95.292375 129.17144 L 93.736914 129.17144 L 91.757707 134.42177 L 89.788835 129.17144 L 88.233374 129.17144 z M 97.3646 129.17144 L 97.3646 136.88674 L 102.16534 136.88674 L 102.16534 136.00824 L 98.408464 136.00824 L 98.408464 129.17144 L 97.3646 129.17144 z M 71.650407 130.73724 L 65.025488 133.14019 L 65.025488 133.99802 L 71.650407 136.40098 L 71.650407 135.46047 L 66.317399 133.57428 L 71.650407 131.67775 L 71.650407 130.73724 z M 103.34356 130.73724 L 103.34356 131.67775 L 108.66624 133.57428 L 103.34356 135.46047 L 103.34356 136.40098 L 109.96848 133.99802 L 109.96848 133.14019 L 103.34356 130.73724 z M 75.45896 155.62978 L 72.771785 164.32692 L 73.650285 164.32692 L 76.337459 155.62978 L 75.45896 155.62978 z M 77.376156 155.62978 L 77.376156 163.34507 L 78.42002 163.34507 L 78.42002 159.67087 L 82.21307 159.67087 L 82.21307 163.34507 L 83.256934 163.34507 L 83.256934 155.62978 L 82.21307 155.62978 L 82.21307 158.79237 L 78.42002 158.79237 L 78.42002 155.62978 L 77.376156 155.62978 z M 84.264624 155.62978 L 84.264624 156.50828 L 87.003475 156.50828 L 87.003475 163.34507 L 88.052507 163.34507 L 88.052507 156.50828 L 90.791357 156.50828 L 90.791357 155.62978 L 84.264624 155.62978 z M 91.799048 155.62978 L 91.799048 163.34507 L 92.811906 163.34507 L 92.811906 156.57029 L 94.801449 161.86195 L 95.85048 161.86195 L 97.840023 156.57029 L 97.840023 163.34507 L 98.858049 163.34507 L 98.858049 155.62978 L 97.302588 155.62978 L 95.323381 160.8801 L 93.354508 155.62978 L 91.799048 155.62978 z M 100.93027 155.62978 L 100.93027 163.34507 L 105.73101 163.34507 L 105.73101 162.46657 L 101.97414 162.46657 L 101.97414 155.62978 L 100.93027 155.62978 z M 71.650407 157.19557 L 65.025488 159.59853 L 65.025488 160.45636 L 71.650407 162.85931 L 71.650407 161.9188 L 66.317399 160.03261 L 71.650407 158.13608 L 71.650407 157.19557 z M 106.90924 157.19557 L 106.90924 158.13608 L 112.23191 160.03261 L 106.90924 161.9188 L 106.90924 162.85931 L 113.53416 160.45636 L 113.53416 159.59853 L 106.90924 157.19557 z " />
    <path
       id="path274"
       style="fill:#800000;stroke-width:0.264583"
       d="M 83.746309 145.53582 A 0.36095026 0.35742155 0 0 0 83.385091 145.89342 A 0.36095026 0.35742155 0 0 0 83.746309 146.25102 A 0.36095026 0.35742155 0 0 0 84.107011 145.89342 A 0.36095026 0.35742155 0 0 0 83.746309 145.53582 z " />
    <ellipse
       style="fill:#800000;stroke-width:0.264583"
       id="path274-3"
       cx="87.273155"
       cy="145.89342"
       rx="0.36095026"
       ry="0.35742155" />
    <ellipse
       style="fill:#800000;stroke-width:0.264583"
       id="path274-6"
       cx="90.384804"
       cy="145.89342"
       rx="0.36095026"
       ry="0.35742155" />
  </g>
</svg>
